<svg fill="none" height="20" viewBox="0 0 20 20" width="20" xmlns="http://www.w3.org/2000/svg"><path d="m8.77224.922689c.32805-.255205.72745-.401872 1.14269-.419614.41527-.017742.82567.094321 1.17427.320614l.139.1 8.384 6.520001c.721.561.37 1.692-.499 1.785l-.116.006h-.997v8.00001c.0002.5046-.1904.9906-.5335 1.3605-.343.37-.8133.5966-1.3165.6345l-.15.005h-11.99996c-.5044-.0001-.99014-.1908-1.35991-.5338-.36977-.3431-.59626-.8132-.63409-1.3162l-.006-.15v-8.00001h-.997c-.9129976 0-1.331998-1.108-.702998-1.715l.088-.076zm1.22796 1.579001-6.37496 4.958c.229.185.375.468.375.785v8.99001h3v-5c0-.7957.31607-1.5587.87868-2.1213.56261-.56264 1.32567-.87871 2.12128-.87871.7957 0 1.5588.31607 2.1214.87871.5626.5626.8786 1.3256.8786 2.1213v5h3v-8.99001c0-.317.146-.6.375-.785zm0 8.73301c-.26517 0-.51953.1053-.70706.2929-.18754.1875-.2929.4419-.2929.7071v5h1.99996v-5c0-.2652-.1053-.5196-.2929-.7071-.1875-.1876-.4418-.2929-.7071-.2929z" fill="#000"/></svg>