<svg fill="none" height="19" viewBox="0 0 20 19" width="20" xmlns="http://www.w3.org/2000/svg" xmlns:xlink="http://www.w3.org/1999/xlink"><clipPath id="a"><path d="m0 .23468h19.9992v18.7323h-19.9992z"/></clipPath><g clip-path="url(#a)"><path d="m9.91349.236508c-.41524.017742-.81454.162764-1.14258.417969l-8.38281 6.521483-.08789.07617c-.629.607-.209872 1.71485.70312 1.71485h.9961v8.00002l.00586.1504c.03783.503.26499.9733.63476 1.3164.36977.343.85498.5331 1.35938.5332h11.99997l.1504-.0039c.5032-.0379.9734-.2648 1.3164-.6348.3431-.3699.5334-.8567.5332-1.3613v-8.00002h.9981l.1152-.00586c.869-.093 1.2191-1.22415.4981-1.78515l-8.3829-6.51954-.1386-.099609c-.3486-.226293-.7605-.338055-1.17581-.320313zm.08594 10.730492c.26527 0 .51957.1053.70707.2929.1876.1875.2929.4419.2929.7071v5h-1.99997v-5c0-.2652.10543-.5196.29297-.7071.18753-.1876.44186-.2929.70703-.2929z" fill="#000"/></g></svg>