<svg fill="none" height="21.5" viewBox="0 0 21.5 21.5" width="21.5" xmlns="http://www.w3.org/2000/svg" xmlns:xlink="http://www.w3.org/1999/xlink"><clipPath id="a"><path d="m0 .46698h21.5v21.5h-21.5z"/></clipPath><g clip-path="url(#a)" transform="translate(0 -.46698)"><path d="m10.75.46698c-.5012.000838-1.00178.036733-1.49801.107422-.01748.00245-.03528.00333-.05273.00586-.48776.071598-.97002.176663-1.44336.314453-.02018.00586-.04042.011602-.06055.017578-.46333.137907-.91684.306907-1.35742.505857-.03403.01538-.06772.03115-.10157.04688-.42295.19646-.83267.42024-1.22656.66992-.04584.02907-.09135.05814-.13672.08789-.37727.24658-.73866.51665-1.08203.80859-.05059.04308-.10061.08687-.15039.13086-.33441.29519-.65013.6109-.94531.94531-.04399.04978-.08778.09981-.13086.1504-.29195.34337-.56201.70476-.80859 1.08203-.02975.04537-.05881.09087-.08789.13672-.24968.39389-.47346.80361-.669927 1.22656-.01572.03384-.03149.06753-.04687.10156-.198949.44059-.367952.89409-.505859 1.35742-.006.02013-.01172.04037-.01758.06055-.137789.47334-.242855.9556-.314453 1.44336-.0025.01745-.0034.03526-.0059.05273-.0706882.49627-.10658273.99677-.107421 1.49807.00083827.5012.0367328 1.0018.107421 1.498.0024.0175.0033.0353.0059.0528.071598.4877.176664.97.314453 1.4433.0059.0202.0116.0404.01758.0606.137907.4633.30691.9168.505859 1.3574.01538.034.03115.0677.04687.1015.196467.423.420247.8327.669927 1.2266.02908.0459.05814.0914.08789.1367.24658.3773.51664.7387.80859 1.0821.04308.0506.08687.1006.13086.1504.29518.3344.6109.6501.94531.9453.04978.044.0998.0877.15039.1308.34337.292.70476.562 1.08203.8086.04537.0298.09088.0588.13672.0879.39389.2497.80361.4735 1.22656.6699.03384.0157.06753.0315.10157.0469.44058.1989.89408.368 1.35742.5059.02013.006.04037.0117.06055.0175.47334.1378.9556.2429 1.44336.3145.01745.0025.03526.0034.05273.0059.49623.0707.99681.1066 1.49801.1074.4973-.0007.994-.036 1.4864-.1055.028-.0039.0559-.0095.0839-.0136.4931-.0716.9806-.1773 1.459-.3164.4647-.1384.9196-.3081 1.3614-.5078.0427-.0193.0864-.0369.1289-.0567.4209-.196.8286-.4192 1.2207-.668.0533-.0338.1054-.0687.1582-.1035.3624-.2385.71-.4987 1.041-.7793.0624-.0528.1244-.1059.1855-.1601.3184-.2827.6197-.584.9024-.9024.0543-.061.1091-.1213.1621-.1836.2851-.3363.5493-.6898.791-1.0586.0355-.0539.0709-.1075.1055-.1621.252-.3968.4778-.8098.6757-1.2363.0097-.0209.0198-.0415.0293-.0625.2008-.4443.3711-.9017.5098-1.3691.0074-.0247.0143-.0495.0215-.0742.1387-.4753.2444-.9595.3164-1.4493.001-.0071.0009-.0143.002-.0215.0723-.5032.1089-1.011.1094-1.5195 0-.1767-.0052-.3526-.0137-.5273-.0087-.1755-.0217-.3506-.0391-.5254-.0159-.1593-.0355-.31819-.0585-.47658-.0028-.01946-.0049-.03917-.0078-.05859-.0252-.17061-.0546-.34058-.0879-.50977-.029-.14387-.0609-.28713-.0957-.42969-.0082-.03372-.015-.06796-.0235-.10156-.0317-.12168-.0656-.24279-.1015-.36328-.0145-.04989-.0259-.1008-.0411-.15039-.0496-.16074-.103-.32029-.1601-.47852-.0563-.15697-.1162-.31261-.1797-.46679-.0042-.01026-.0075-.02101-.0117-.03125-.0355-.08185-.072-.16325-.1094-.24418-.0438-.09813-.0863-.19641-.1329-.29297-.074-.15348-.1514-.30574-.2324-.45508-.0099-.01821-.0193-.03653-.0293-.05469-.9859-1.7922-2.4676-3.27383-4.2598-4.25976-.0181-.00999-.0364-.01941-.0546-.0293-.1494-.08103-.3016-.15837-.4551-.23242-.0966-.04659-.1949-.08905-.293-.13281-.0809-.03747-.1623-.07393-.2441-.10938-.0103-.00426-.021-.00749-.0313-.01172-.1542-.0635-.3098-.12342-.4668-.17968-.1582-.05713-.3177-.110526-.4785-.16016-.0496-.015184-.1005-.026534-.1504-.041016-.1205-.035976-.2416-.069835-.3633-.101562-.0336-.00848-.0678-.01528-.1015-.023437-.1426-.034831-.2858-.066739-.4297-.095703-.1692-.033382-.3392-.062687-.5098-.087891-.0194-.00289-.0391-.00503-.0586-.00781-.1584-.023077-.3173-.042613-.4765-.058594-.1748-.017311-.35-.030336-.5254-.039063-.1747-.008476-.3506-.013674-.5274-.013674zm0 1.5c5.1177 0 9.25 4.1323 9.25 9.25002 0 1.9372-.5938 3.7326-1.6074 5.2168-.3291-.2827-.7716-.6184-1.3437-.9453-1.3483-.7705-3.4195-1.5215-6.2989-1.5215-2.87932 0-4.95075.7509-6.29879 1.5215-.57203.3269-1.01458.6626-1.34375.9453-1.01354-1.4842-1.60742-3.2796-1.60742-5.2168 0-5.11772 4.13232-9.25002 9.24996-9.25002zm0 2.5c-.99427 0-1.94927.39461-2.65231 1.09766-.70305.70305-1.09765 1.65807-1.09765 2.65234s.3946 1.94932 1.09765 2.65232c.70303.703 1.65802 1.0977 2.65231 1.0977.9943 0 1.9493-.3946 2.6524-1.0977.703-.703 1.0976-1.65803 1.0976-2.65232s-.3946-1.9493-1.0976-2.65234c-.7031-.70308-1.6581-1.09766-2.6524-1.09766z" fill="#000"/></g></svg>