<svg fill="none" height="21.5" viewBox="0 0 21.5 21.5" width="21.5" xmlns="http://www.w3.org/2000/svg" xmlns:xlink="http://www.w3.org/1999/xlink"><clipPath id="a"><path d="m0 .96698h21.5v21.5h-21.5z"/></clipPath><g clip-path="url(#a)" fill="#000" transform="translate(0 -.96698)"><path d="m10.75.96698c-5.9283 0-10.75 4.82168-10.75 10.75002 0 5.9283 4.8217 10.75 10.75 10.75s10.75-4.8217 10.75-10.75c0-5.92834-4.8217-10.75002-10.75-10.75002zm0 1.5c5.1177 0 9.25 4.13229 9.25 9.25002 0 5.1177-4.1323 9.25-9.25 9.25-5.11769 0-9.25-4.1323-9.25-9.25 0-5.11773 4.13231-9.25002 9.25-9.25002z"/><path d="m10.75 4.96698c-.99431 0-1.9493.39461-2.65234 1.09766-.70306.70305-1.09766 1.65807-1.09766 2.65234s.3946 1.94932 1.09766 2.65232c.70303.7031 1.65801 1.0977 2.65234 1.0977.9943 0 1.9493-.3946 2.6523-1.0977.7031-.703 1.0977-1.65803 1.0977-2.65232s-.3946-1.9493-1.0977-2.65234c-.703-.70308-1.6581-1.09766-2.6523-1.09766zm0 1.5c.597 0 1.1697.23801 1.5918.66016.4222.42217.6582.99283.6582 1.58984s-.236 1.16963-.6582 1.59182c-.4221.4221-.9949.6582-1.5918.6582-.5971 0-1.16962-.2361-1.59179-.6582-.42217-.42218-.65821-.99479-.65821-1.59182s.23604-1.16768.65821-1.58984c.42216-.42217.99469-.66016 1.59179-.66016zm0 8.00002c-2.87936 0-4.95078.7509-6.29883 1.5215-1.34804.7705-2.02148 1.6113-2.02148 1.6113-.06096.0776-.10598.1666-.1325.2616-.02652.0951-.034.1945-.02203.2925.01198.098.04318.1926.09182.2785s.11375.1614.19162.2221c.1567.1225.35564.1777.55306.1535.19742-.0241.37716-.1257.49967-.2824 0 0 .44253-.5819 1.58398-1.2344 1.14146-.6525 2.93406-1.3242 5.55469-1.3242 2.6206 0 4.413.6717 5.5547 1.3242s1.584 1.2344 1.584 1.2344c.0607.0778.1361.143.222.1916s.1806.0798.2786.0918c.0979.012.1973.0045.2924-.022s.184-.0716.2617-.1325c.0777-.0608.1426-.1364.1911-.2224.0484-.0859.0795-.1806.0912-.2786.0118-.098.0042-.1973-.0225-.2924-.0267-.095-.0718-.1838-.1329-.2613 0 0-.6732-.8408-2.0215-1.6113-1.3482-.7706-3.4194-1.5215-6.2988-1.5215z"/></g></svg>